<svg width="109" height="108" viewBox="0 0 109 108" fill="none" xmlns="http://www.w3.org/2000/svg">
<g filter="url(#filter0_d_2551_3135)">
<ellipse cx="54.2808" cy="53.8607" rx="43.7325" ry="43.367" fill="white"/>
</g>
<path d="M5.01551 54.2214C4.77183 54.2214 4.60938 54.0603 4.60938 53.8186C4.60938 52.7312 4.64999 51.6438 4.73121 50.5564C4.73121 50.3148 4.93428 50.1537 5.17796 50.194C5.42164 50.194 5.58409 50.3953 5.54348 50.637C5.46225 51.6841 5.42164 52.7715 5.42164 53.8186C5.42164 54.02 5.25919 54.2214 5.01551 54.2214ZM5.46225 47.7775H5.42164C5.21857 47.7373 5.05612 47.5359 5.05612 47.3345C5.21857 46.2874 5.38103 45.2 5.58409 44.1126C5.62471 43.9113 5.82777 43.7502 6.07145 43.7904C6.27452 43.8307 6.43697 44.0321 6.39636 44.2737C6.19329 45.3208 5.99022 46.368 5.86838 47.4151C5.82777 47.6164 5.66532 47.7775 5.46225 47.7775ZM6.72126 41.4546C6.68065 41.4546 6.64004 41.4546 6.59942 41.4546C6.39636 41.4143 6.27452 41.1726 6.31513 40.9713C6.59942 39.9241 6.92433 38.877 7.28985 37.8702C7.37107 37.6688 7.57414 37.548 7.81782 37.6285C8.02089 37.7091 8.14273 37.9105 8.0615 38.1521C7.69598 39.1589 7.41169 40.2061 7.12739 41.2129C7.08678 41.3337 6.92433 41.4546 6.72126 41.4546ZM101.228 39.6825C101.066 39.6825 100.903 39.5617 100.822 39.4006C100.497 38.3937 100.132 37.3869 99.7662 36.3801C99.6849 36.1787 99.8068 35.937 100.01 35.8565C100.213 35.7759 100.457 35.8968 100.538 36.0981C100.944 37.105 101.309 38.1521 101.634 39.1589C101.716 39.3603 101.594 39.602 101.35 39.6825C101.309 39.6825 101.269 39.6825 101.228 39.6825ZM8.83315 35.3732C8.79254 35.3732 8.71131 35.3732 8.6707 35.3329C8.46763 35.2524 8.3864 35.0107 8.46763 34.8094C8.87376 33.8025 9.36112 32.836 9.84848 31.8694C9.92971 31.668 10.1734 31.5875 10.3765 31.668C10.5795 31.7486 10.6607 31.9902 10.5795 32.1916C10.0922 33.1581 9.64541 34.1247 9.23928 35.0913C9.15806 35.2927 8.9956 35.3732 8.83315 35.3732ZM98.8727 33.6817C98.7102 33.6817 98.5884 33.6012 98.5072 33.4401C98.0604 32.4735 97.573 31.5069 97.0451 30.5806C96.9232 30.3793 97.0045 30.1376 97.2075 30.0168C97.4106 29.896 97.6543 29.9765 97.7761 30.1779C98.3041 31.1445 98.7914 32.111 99.2382 33.0776C99.3194 33.279 99.2382 33.5206 99.0351 33.6012C98.9945 33.6817 98.9133 33.6817 98.8727 33.6817ZM11.7573 29.614C11.6761 29.614 11.6355 29.614 11.5542 29.5738C11.3512 29.453 11.3106 29.2113 11.3918 29.0099C11.9198 28.0836 12.529 27.1573 13.1382 26.2713C13.26 26.07 13.5037 26.0297 13.7067 26.1505C13.9098 26.2713 13.9504 26.513 13.8286 26.7143C13.2194 27.6004 12.6508 28.5267 12.1228 29.4127C12.001 29.5335 11.8791 29.614 11.7573 29.614ZM95.7454 28.0434C95.6236 28.0434 95.4612 27.9628 95.4205 27.842C94.852 26.956 94.2428 26.07 93.593 25.2242C93.4711 25.0631 93.5117 24.7812 93.6742 24.6604C93.8366 24.5395 94.1209 24.5798 94.2428 24.7409C94.8926 25.6269 95.5018 26.513 96.111 27.4393C96.2328 27.6406 96.1922 27.8823 95.9891 28.0031C95.9079 28.0031 95.8267 28.0434 95.7454 28.0434ZM15.3719 24.2576C15.2907 24.2576 15.2094 24.2174 15.1282 24.1771C14.9657 24.0563 14.9251 23.7743 15.047 23.6132C15.6968 22.7675 16.4278 21.9217 17.1182 21.1163C17.2807 20.9552 17.5244 20.9149 17.6868 21.076C17.8493 21.2371 17.8493 21.4787 17.7274 21.6398C17.037 22.4453 16.306 23.2508 15.6562 24.0965C15.6156 24.2174 15.4937 24.2576 15.3719 24.2576ZM91.9278 22.848C91.806 22.848 91.6841 22.8078 91.6029 22.687C90.9125 21.8815 90.1814 21.076 89.4504 20.3108C89.2879 20.1497 89.2879 19.9081 89.4504 19.747C89.6129 19.5859 89.8565 19.5859 90.019 19.747C90.75 20.5122 91.5217 21.3176 92.2121 22.1634C92.3746 22.3245 92.3339 22.6064 92.1715 22.7272C92.0903 22.8078 92.009 22.848 91.9278 22.848ZM19.6769 19.465C19.555 19.465 19.4738 19.4248 19.3926 19.3442C19.2301 19.1831 19.2301 18.9415 19.3926 18.7804C20.1642 18.0152 20.9765 17.2903 21.7888 16.5653C21.9512 16.4042 22.1949 16.4445 22.3574 16.6056C22.5198 16.7667 22.4792 17.0083 22.3167 17.1694C21.5045 17.8541 20.6922 18.579 19.9612 19.3442C19.8799 19.4248 19.7581 19.465 19.6769 19.465ZM87.4197 18.1763C87.3385 18.1763 87.2167 18.136 87.1354 18.0555C86.3638 17.3305 85.5109 16.6459 84.6987 15.9612C84.5362 15.8404 84.4956 15.5585 84.6174 15.3974C84.7393 15.2363 85.0236 15.196 85.186 15.3168C86.0389 16.0015 86.8918 16.6862 87.6634 17.4111C87.8259 17.5722 87.8259 17.8138 87.704 17.9749C87.6228 18.136 87.5416 18.1763 87.4197 18.1763ZM24.5911 15.2363C24.4692 15.2363 24.3474 15.196 24.2662 15.0752C24.1443 14.9141 24.1849 14.6322 24.3474 14.5114C25.2003 13.867 26.1344 13.2226 27.0279 12.6588C27.2309 12.5379 27.4746 12.5782 27.5965 12.7796C27.7183 12.981 27.6777 13.2226 27.4746 13.3434C26.5811 13.9073 25.6876 14.5516 24.8348 15.196C24.7535 15.2363 24.6723 15.2363 24.5911 15.2363ZM82.3431 14.1892C82.2619 14.1892 82.1806 14.1489 82.0994 14.1086C81.2059 13.5045 80.3124 12.9407 79.3783 12.3769C79.1753 12.256 79.1346 12.0144 79.2565 11.813C79.3783 11.6116 79.622 11.5714 79.8251 11.6922C80.7592 12.256 81.6933 12.8601 82.5868 13.4642C82.7898 13.5851 82.8304 13.8267 82.7086 14.0281C82.5868 14.1086 82.4649 14.1892 82.3431 14.1892ZM30.0333 11.7325C29.9114 11.7325 29.749 11.6519 29.6677 11.5311C29.5459 11.3297 29.6271 11.0881 29.8302 10.9673C30.7643 10.4437 31.739 9.92015 32.7543 9.47714C32.9574 9.39659 33.2011 9.47714 33.2823 9.67851C33.3635 9.87988 33.2823 10.1215 33.0792 10.2021C32.1045 10.6451 31.1704 11.1686 30.2363 11.6922C30.1551 11.7325 30.1145 11.7325 30.0333 11.7325ZM76.7791 10.8464C76.6978 10.8464 76.6572 10.8464 76.576 10.8062C75.6419 10.3229 74.6266 9.87987 73.6519 9.43686C73.4488 9.35632 73.3676 9.11467 73.4488 8.9133C73.53 8.71193 73.7737 8.63139 73.9768 8.71193C74.9921 9.15495 75.9668 9.59796 76.9415 10.1215C77.1446 10.2423 77.2258 10.484 77.104 10.6451C77.0634 10.7659 76.9415 10.8464 76.7791 10.8464ZM35.8816 8.95358C35.7191 8.95358 35.5567 8.87303 35.516 8.71193C35.4348 8.51056 35.516 8.26892 35.7597 8.18837C36.775 7.78564 37.7904 7.42317 38.8463 7.06071C39.0494 6.98016 39.2931 7.10098 39.3743 7.30235C39.4555 7.50372 39.3337 7.74536 39.1306 7.82591C38.1153 8.1481 37.1 8.51056 36.0846 8.9133C36.0034 8.95358 35.9222 8.95358 35.8816 8.95358ZM70.8495 8.3092C70.8089 8.3092 70.7683 8.3092 70.7277 8.26892C69.7124 7.90646 68.697 7.58427 67.6411 7.30235C67.438 7.2218 67.3162 7.02043 67.3568 6.81906C67.438 6.6177 67.6411 6.49687 67.8442 6.53715C68.9001 6.81906 69.9561 7.18153 70.9714 7.54399C71.1744 7.62454 71.2963 7.86618 71.2151 8.06755C71.1338 8.18837 71.012 8.3092 70.8495 8.3092ZM42.0548 6.93989C41.8923 6.93989 41.6892 6.81906 41.6486 6.6177C41.608 6.41633 41.7299 6.17468 41.9329 6.13441C42.9889 5.85249 44.0448 5.61085 45.1414 5.44975C45.3444 5.40948 45.5881 5.57058 45.6287 5.77194C45.6693 5.97331 45.5069 6.21496 45.3038 6.25523C44.2479 6.4566 43.1919 6.69824 42.1766 6.93989C42.136 6.93989 42.0954 6.93989 42.0548 6.93989ZM64.5951 6.53715C64.5545 6.53715 64.5545 6.53715 64.5139 6.53715C63.4579 6.2955 62.402 6.13441 61.346 5.97331C61.143 5.93304 60.9805 5.73167 61.0211 5.5303C61.0618 5.32893 61.2648 5.16784 61.4679 5.20811C62.5238 5.36921 63.6204 5.57058 64.6763 5.77194C64.8794 5.81222 65.0419 6.01359 65.0012 6.25523C64.9606 6.37605 64.7576 6.53715 64.5951 6.53715ZM48.431 5.73167C48.228 5.73167 48.0655 5.57058 48.0249 5.36921C47.9843 5.16784 48.1468 4.96647 48.3904 4.92619C49.487 4.80537 50.5835 4.72483 51.6395 4.64428C51.8426 4.64428 52.0456 4.80537 52.0862 5.00674C52.0862 5.24839 51.9238 5.40948 51.7207 5.44975C50.6648 5.49003 49.5682 5.61085 48.5123 5.73167C48.4717 5.73167 48.431 5.73167 48.431 5.73167ZM58.1782 5.57058C58.1376 5.57058 58.1376 5.57058 58.1782 5.57058C57.0817 5.49003 55.9851 5.44975 54.9292 5.40948C54.6855 5.40948 54.523 5.20811 54.523 5.00674C54.523 4.80537 54.7261 4.604 54.9292 4.604C56.0257 4.604 57.1223 4.68455 58.2188 4.7651C58.4625 4.7651 58.625 4.96647 58.5843 5.20811C58.5437 5.40948 58.3813 5.57058 58.1782 5.57058Z" fill="#E32175"/>
<path d="M103.015 48.3413C102.528 48.3413 102.081 47.9789 102 47.4553C101.431 43.146 100.254 38.9173 98.5072 34.9302C98.3041 34.4066 98.5072 33.8428 99.0351 33.6011C99.5631 33.3997 100.132 33.6011 100.375 34.1247C102.203 38.2729 103.421 42.703 103.99 47.1734C104.071 47.7372 103.665 48.2205 103.096 48.3011C103.096 48.3413 103.056 48.3413 103.015 48.3413Z" fill="#E32175"/>
<path d="M5.01533 54.8256C4.44675 54.8256 4 54.3826 4 53.8187C4 26.352 26.5403 4 54.2386 4C54.8071 4 55.2539 4.44301 55.2539 5.00685C55.2539 5.57068 54.8071 6.01369 54.2386 6.01369C27.6369 6.01369 6.03066 27.4394 6.03066 53.8187C6.03066 54.3423 5.58392 54.8256 5.01533 54.8256Z" fill="#E32175"/>
<path d="M54.2385 104C53.6699 104 53.2231 103.557 53.2231 102.993C53.2231 102.429 53.6699 101.986 54.2385 101.986C66.6255 101.986 78.444 97.3146 87.4195 88.8571C87.8256 88.4544 88.4754 88.4947 88.8409 88.8974C89.2471 89.3001 89.2065 89.9445 88.8003 90.307C79.4187 99.1672 67.1535 104 54.2385 104Z" fill="#E32175"/>
<path d="M23.0072 92.3204C22.9259 92.3204 22.8447 92.2801 22.7635 92.2398C21.9106 91.5552 21.0983 90.8302 20.2861 90.1053C20.1236 89.9442 20.1236 89.7026 20.2861 89.5415C20.4485 89.3804 20.6922 89.3804 20.8547 89.5415C21.6263 90.2664 22.4386 90.9913 23.2915 91.6357C23.4539 91.7968 23.4945 92.0384 23.3321 92.1995C23.2508 92.2801 23.129 92.3204 23.0072 92.3204ZM18.2554 87.9305C18.1336 87.9305 18.0524 87.8902 17.9711 87.8097C17.2401 87.0042 16.5091 86.1987 15.8186 85.353C15.6968 85.1919 15.6968 84.91 15.8592 84.7892C16.0217 84.6281 16.306 84.6683 16.4278 84.8294C17.1182 85.6349 17.8087 86.4404 18.5397 87.2459C18.7022 87.407 18.7022 87.6486 18.5397 87.8097C18.4585 87.8902 18.3773 87.9305 18.2554 87.9305ZM14.1535 82.9366C14.0316 82.9366 13.9098 82.8963 13.8286 82.7755C13.1788 81.8894 12.5696 81.0034 12.001 80.0771C11.8791 79.8757 11.9604 79.6341 12.1228 79.5133C12.3259 79.3925 12.5696 79.473 12.6914 79.6341C13.26 80.5201 13.8692 81.4464 14.4784 82.2922C14.6002 82.4533 14.5596 82.7352 14.3972 82.856C14.3159 82.9366 14.2347 82.9366 14.1535 82.9366ZM10.742 77.4593C10.5795 77.4593 10.4577 77.3788 10.3765 77.2579C9.84848 76.2914 9.36112 75.3248 8.95499 74.3582C8.87376 74.1569 8.95499 73.9152 9.15806 73.8347C9.36112 73.7541 9.6048 73.8347 9.68603 74.036C10.1328 75.0026 10.5795 75.9692 11.1075 76.8955C11.2293 77.0969 11.1481 77.3385 10.945 77.4593C10.8638 77.4593 10.8232 77.4593 10.742 77.4593ZM8.0615 71.6196C7.89905 71.6196 7.73659 71.5391 7.69598 71.3377C7.33046 70.3309 6.96494 69.2837 6.64004 68.2769C6.55881 68.0755 6.68065 67.8339 6.92433 67.7936C7.12739 67.7131 7.37107 67.8339 7.41169 68.0755C7.69598 69.0824 8.0615 70.0892 8.42702 71.0961C8.50824 71.2974 8.38641 71.5391 8.18334 71.6196C8.18334 71.5793 8.14273 71.6196 8.0615 71.6196ZM6.2339 65.4577C6.03084 65.4577 5.86838 65.3369 5.82777 65.1355C5.58409 64.0884 5.38103 63.001 5.21857 61.9539C5.17796 61.7525 5.34041 61.5109 5.54348 61.5109C5.74655 61.4706 5.99022 61.6317 5.99022 61.8331C6.15268 62.8802 6.35574 63.9273 6.59942 64.9744C6.64004 65.1758 6.5182 65.4174 6.27452 65.4577C6.27452 65.4174 6.27452 65.4577 6.2339 65.4577ZM5.21857 59.0945C5.01551 59.0945 4.85305 58.9334 4.81244 58.732C4.73121 57.6446 4.64999 56.5572 4.60938 55.5101C4.60938 55.2684 4.77183 55.1073 5.01551 55.1073C5.21857 55.1073 5.42164 55.2684 5.42164 55.5101C5.46225 56.5572 5.50287 57.6446 5.62471 58.6917C5.62471 58.8528 5.46225 59.0542 5.21857 59.0945C5.21857 59.0945 5.25919 59.0945 5.21857 59.0945ZM5.05612 52.6506C4.81244 52.6506 4.64999 52.4493 4.64999 52.2479C4.6906 51.1605 4.77183 50.0731 4.89367 49.026C4.93428 48.8246 5.09673 48.6233 5.34041 48.6635C5.54348 48.7038 5.70593 48.9052 5.70593 49.1065C5.58409 50.1537 5.50287 51.2411 5.46225 52.2882C5.46225 52.4895 5.25919 52.6506 5.05612 52.6506ZM5.74655 46.2471C5.70593 46.2471 5.70593 46.2471 5.66532 46.2471C5.46225 46.2068 5.2998 46.0055 5.34041 45.7638C5.54348 44.7167 5.74655 43.6293 5.99022 42.5822C6.03084 42.3808 6.27452 42.2197 6.47758 42.3003C6.68065 42.3405 6.8431 42.5822 6.76188 42.7836C6.5182 43.8307 6.27452 44.8778 6.11206 45.9249C6.11206 46.086 5.94961 46.2471 5.74655 46.2471ZM7.24923 40.0047C7.20862 40.0047 7.16801 40.0047 7.12739 40.0047C6.92433 39.9241 6.80249 39.7227 6.8431 39.4811C7.16801 38.434 7.53353 37.4271 7.93966 36.4203C8.02089 36.2189 8.26457 36.0981 8.46763 36.1787C8.6707 36.2592 8.79254 36.5008 8.71131 36.7022C8.30518 37.7091 7.98027 38.7159 7.65537 39.7227C7.61475 39.8838 7.4523 40.0047 7.24923 40.0047ZM9.6048 33.9636C9.56419 33.9636 9.48296 33.9636 9.44235 33.9233C9.23928 33.8428 9.15806 33.6011 9.23928 33.3998C9.68603 32.4332 10.214 31.4666 10.742 30.5C10.8638 30.2987 11.1075 30.2181 11.3106 30.3389C11.5136 30.4598 11.5948 30.7014 11.473 30.9028C10.945 31.8291 10.4577 32.7957 10.0109 33.7622C9.92971 33.883 9.76725 33.9636 9.6048 33.9636ZM12.7726 28.3253C12.6914 28.3253 12.6102 28.285 12.5696 28.2447C12.3665 28.1239 12.3259 27.8822 12.4477 27.6809C13.0163 26.7546 13.6661 25.8686 14.3159 25.0228C14.4378 24.8617 14.7221 24.8214 14.8845 24.9423C15.047 25.0631 15.0876 25.345 14.9657 25.5061C14.3159 26.3518 13.7067 27.2379 13.1382 28.1239C13.0163 28.285 12.8945 28.3253 12.7726 28.3253ZM16.6309 23.1702C16.5497 23.1702 16.4278 23.1299 16.3872 23.0897C16.2248 22.9286 16.1841 22.6869 16.3466 22.5258C17.037 21.7203 17.7681 20.8746 18.5397 20.1094C18.7022 19.9483 18.9458 19.9483 19.1083 20.1094C19.2707 20.2705 19.2707 20.5121 19.1083 20.6732C18.3773 21.4384 17.6462 22.2439 16.9558 23.0494C16.834 23.0897 16.7121 23.1702 16.6309 23.1702ZM21.0983 18.4984C20.9765 18.4984 20.8953 18.4582 20.8141 18.3776C20.6516 18.2165 20.6922 17.9749 20.8547 17.8138C21.6669 17.0889 22.4792 16.3639 23.3321 15.7196C23.4945 15.5987 23.7788 15.5987 23.9007 15.8001C24.0225 15.9612 24.0225 16.2431 23.8194 16.3639C22.9666 17.0083 22.1543 17.7332 21.3826 18.4179C21.3014 18.4984 21.2202 18.4984 21.0983 18.4984ZM26.175 14.5113C26.0532 14.5113 25.9313 14.4711 25.8501 14.3502C25.7283 14.1489 25.7689 13.9072 25.9719 13.7864C26.8654 13.1823 27.7995 12.5782 28.7336 12.0144C28.9367 11.8935 29.1804 11.9741 29.3022 12.1352C29.4241 12.3365 29.3428 12.5782 29.1804 12.699C28.2463 13.2628 27.3528 13.8267 26.4593 14.4308C26.3375 14.4711 26.2562 14.5113 26.175 14.5113ZM31.739 11.2089C31.5766 11.2089 31.4547 11.1283 31.3735 11.0075C31.2517 10.8061 31.3329 10.5645 31.5359 10.484C32.5107 10.0007 33.4854 9.51738 34.5007 9.11464C34.7038 9.0341 34.9475 9.11464 35.0287 9.31601C35.1099 9.51738 35.0287 9.75902 34.8256 9.83957C33.8509 10.2423 32.8762 10.7256 31.9015 11.2089C31.9015 11.1686 31.8202 11.2089 31.739 11.2089ZM37.7092 8.63136C37.5467 8.63136 37.3842 8.51054 37.3436 8.34944C37.2624 8.14807 37.3842 7.90643 37.5873 7.82588C38.6026 7.46342 39.6586 7.14123 40.7145 6.81904C40.9176 6.73849 41.1613 6.89958 41.2019 7.10095C41.2831 7.30232 41.1207 7.54396 40.9176 7.58424C39.9023 7.86616 38.8463 8.18835 37.831 8.55081C37.7904 8.63136 37.7498 8.63136 37.7092 8.63136ZM43.9636 6.89958C43.7605 6.89958 43.5981 6.77876 43.5575 6.57739C43.5168 6.37602 43.6387 6.13438 43.8824 6.09411C44.9383 5.85246 46.0349 5.69137 47.0908 5.53027C47.3345 5.49 47.5376 5.65109 47.5376 5.85246C47.5782 6.05383 47.4157 6.29548 47.2126 6.29548C46.1567 6.45657 45.1008 6.61767 44.0448 6.85931C44.0042 6.89958 43.9636 6.89958 43.9636 6.89958ZM50.3805 5.97329C50.1774 5.97329 49.9743 5.81219 49.9743 5.61082C49.9743 5.36918 50.1368 5.20808 50.3399 5.16781C51.4364 5.08726 52.533 5.04699 53.6295 5.00671C53.8326 5.00671 54.0357 5.16781 54.0357 5.40945C54.0357 5.6511 53.8732 5.81219 53.6295 5.81219C52.533 5.85246 51.477 5.89274 50.3805 5.97329Z" fill="#E32175"/>
<defs>
<filter id="filter0_d_2551_3135" x="0.54834" y="0.493652" width="107.465" height="106.734" filterUnits="userSpaceOnUse" color-interpolation-filters="sRGB">
<feFlood flood-opacity="0" result="BackgroundImageFix"/>
<feColorMatrix in="SourceAlpha" type="matrix" values="0 0 0 0 0 0 0 0 0 0 0 0 0 0 0 0 0 0 127 0" result="hardAlpha"/>
<feOffset/>
<feGaussianBlur stdDeviation="5"/>
<feColorMatrix type="matrix" values="0 0 0 0 0 0 0 0 0 0 0 0 0 0 0 0 0 0 0.15 0"/>
<feBlend mode="normal" in2="BackgroundImageFix" result="effect1_dropShadow_2551_3135"/>
<feBlend mode="normal" in="SourceGraphic" in2="effect1_dropShadow_2551_3135" result="shape"/>
</filter>
</defs>
</svg>
