<svg width="138" height="180" viewBox="0 0 138 180" fill="none" xmlns="http://www.w3.org/2000/svg">
<path fill-rule="evenodd" clip-rule="evenodd" d="M87.5703 33.7401H93.8603V16.4301H87.5703V33.7401Z" fill="#F23C8B"/>
<path fill-rule="evenodd" clip-rule="evenodd" d="M50.8408 33.7401H57.1408V16.4301H50.8408V33.7401Z" fill="#F23C8B"/>
<path fill-rule="evenodd" clip-rule="evenodd" d="M94.9003 4.77005V21.03H85.4603V10.5401H58.1802V21.03H48.7402V4.77005C48.7402 2.15005 50.8403 0.0500488 53.4603 0.0500488H90.1802C93.3302 0.0500488 94.9003 2.15005 94.9003 4.77005Z" fill="#F23C8B"/>
<path fill-rule="evenodd" clip-rule="evenodd" d="M124.28 47.79V159.54C124.28 165.31 119.56 169.51 113.79 169.51H29.8503C24.0803 169.51 19.3604 164.79 19.3604 159.54V47.79C19.3604 42.02 24.0803 37.3 29.8503 37.3H113.79C119.56 37.83 124.28 42.55 124.28 47.79Z" fill="#FED4EA"/>
<path fill-rule="evenodd" clip-rule="evenodd" d="M28.2705 172.66C28.2705 176.86 31.4205 180 35.6105 180C39.8105 180 42.9505 176.85 42.9505 172.66C42.9505 170.56 41.9005 168.99 40.8505 167.41H29.8305C28.8005 168.98 28.2705 171.08 28.2705 172.66Z" fill="#F23C8B"/>
<path fill-rule="evenodd" clip-rule="evenodd" d="M101.721 172.66C101.721 176.86 104.871 180 109.061 180C113.261 180 116.401 176.85 116.401 172.66C116.401 170.56 115.351 168.99 114.301 167.41H103.301C102.251 168.98 101.721 171.08 101.721 172.66Z" fill="#F23C8B"/>
<path fill-rule="evenodd" clip-rule="evenodd" d="M42.4407 169.51C39.8207 169.51 37.7207 167.41 37.7207 164.79V42.5501C37.7207 39.9301 39.8207 37.8201 42.4407 37.8201C45.0607 37.8201 47.1607 39.9201 47.1607 42.5501V165.31C47.1607 167.41 45.0607 169.51 42.4407 169.51Z" fill="#FFA0C7"/>
<path fill-rule="evenodd" clip-rule="evenodd" d="M62.3802 169.51C59.7602 169.51 57.6602 167.41 57.6602 164.79V42.5501C57.6602 39.9301 59.7602 37.8201 62.3802 37.8201C65.0002 37.8201 67.1002 39.9201 67.1002 42.5501V165.31C67.1002 167.41 65.0002 169.51 62.3802 169.51Z" fill="#FFA0C7"/>
<path fill-rule="evenodd" clip-rule="evenodd" d="M81.7903 169.51C79.1703 169.51 77.0703 167.41 77.0703 164.79V42.5501C77.0703 39.9301 79.1703 37.8201 81.7903 37.8201C84.4103 37.8201 86.5103 39.9201 86.5103 42.5501V165.31C86.5003 167.41 84.4103 169.51 81.7903 169.51Z" fill="#FFA0C7"/>
<path fill-rule="evenodd" clip-rule="evenodd" d="M101.72 169.51C99.1 169.51 97 167.41 97 164.79V42.5501C97 39.9301 99.1 37.8201 101.72 37.8201C104.34 37.8201 106.44 39.9201 106.44 42.5501V165.31C106.44 167.41 104.35 169.51 101.72 169.51Z" fill="#FFA0C7"/>
<path fill-rule="evenodd" clip-rule="evenodd" d="M58.2698 56.16L38.8398 56.9C36.1598 57 33.5298 58.44 31.5698 59.86L5.11979 87.72C1.24979 91.9 1.50979 98.6 5.67979 102.47L20.9898 116.65C25.1598 120.51 31.8698 120.25 35.7298 116.09L62.1798 88.23C64.1098 86.14 65.3498 83.41 64.5798 80.75L63.8098 60.65C63.7098 57.97 60.9498 56.06 58.2698 56.16Z" fill="#BAEDFE" stroke="#FFA0C7" stroke-width="3" stroke-miterlimit="10"/>
<path fill-rule="evenodd" clip-rule="evenodd" d="M49.3299 67.91C49.2299 65.24 51.1599 63.15 53.8399 63.05C56.5199 62.95 58.6099 64.88 58.7099 67.55C58.8099 70.23 56.8799 72.32 54.1999 72.42C51.5199 72.52 49.3999 69.92 49.3299 67.91Z" fill="white"/>
<path fill-rule="evenodd" clip-rule="evenodd" d="M67.1101 58.65L52.6601 71.66C50.6701 73.45 49.5701 76.24 48.9701 78.58L46.4801 116.91C46.1901 122.6 50.6701 127.58 56.3601 127.88L77.2002 128.97C82.8802 129.26 87.8601 124.78 88.1701 119.1L90.6601 80.77C90.8101 77.93 90.0102 75.04 87.7102 73.49L74.2501 58.54C72.4401 56.56 69.1001 56.86 67.1101 58.65Z" fill="#BAEDFE" stroke="#FFA0C7" stroke-width="3" stroke-miterlimit="10"/>
<path fill-rule="evenodd" clip-rule="evenodd" d="M67.7604 73.4001C65.9704 71.4101 66.1204 68.5701 68.1104 66.7801C70.1004 64.9901 72.9504 65.1301 74.7404 67.1201C76.5304 69.1101 76.3904 71.9601 74.3904 73.7501C72.3904 75.5501 69.1104 74.9001 67.7604 73.4001Z" fill="white"/>
<path fill-rule="evenodd" clip-rule="evenodd" d="M79.6199 60.45L76.76 79.69C76.36 82.34 77.29 85.19 78.32 87.38L100.8 118.53C104.19 123.1 110.83 124.09 115.4 120.7L132.17 108.28C136.74 104.89 137.72 98.26 134.34 93.69L111.86 62.54C110.17 60.25 107.71 58.53 104.95 58.8L85.0499 55.84C82.3999 55.44 80.0199 57.8 79.6199 60.45Z" fill="#BAEDFE" stroke="#FFA0C7" stroke-width="3" stroke-miterlimit="10"/>
<path fill-rule="evenodd" clip-rule="evenodd" d="M89.5097 71.41C86.8597 71.02 85.1697 68.73 85.5597 66.08C85.9597 63.43 88.2397 61.73 90.8897 62.13C93.5397 62.53 95.2397 64.81 94.8397 67.46C94.4497 70.12 91.5097 71.71 89.5097 71.41Z" fill="white"/>
<path fill-rule="evenodd" clip-rule="evenodd" d="M112.07 87.26C111.04 86.2 110.15 85.45 109.57 85.33C107.2 84.85 98.5102 91.52 98.7602 93.85C98.8202 94.42 99.3602 95.45 100.14 96.67C99.8102 97 99.7702 97.53 100.06 97.9L101.17 99.31C101.42 99.62 101.83 99.73 102.19 99.62C103.88 101.9 105.76 104.18 106.77 105.26C107.47 106.15 107.96 105.53 107.96 105.53L108.52 105.09L109.28 106.05C109.58 106.43 110.22 106.43 110.7 106.05C111.19 105.67 111.34 105.05 111.04 104.67L110.28 103.71L116.83 98.55L117.59 99.51C117.89 99.89 118.53 99.89 119.01 99.51C119.5 99.13 119.65 98.51 119.35 98.13L118.59 97.17L118.77 97.02C118.77 97.02 119.55 96.56 119.27 96.1C119.01 95.76 118.65 95.31 118.24 94.76C117.23 93.44 115.85 91.64 114.46 89.97C114.68 89.64 114.68 89.2 114.43 88.87L113.32 87.46C113.02 87.08 112.47 87 112.07 87.26ZM101.03 92.4L107.64 87.19L108.43 88.19L101.82 93.4L101.03 92.4ZM107.58 102.46C107.99 102.98 108.74 103.07 109.26 102.66C109.78 102.25 109.87 101.5 109.46 100.98C109.05 100.46 108.3 100.37 107.78 100.78C107.26 101.19 107.17 101.95 107.58 102.46ZM115.74 97.56C115.22 97.97 114.47 97.88 114.06 97.36C113.65 96.84 113.74 96.09 114.26 95.68C114.78 95.27 115.53 95.36 115.94 95.88C116.35 96.4 116.26 97.15 115.74 97.56ZM104.77 99.55L113.7 92.52L110.02 87.85L101.09 94.88L104.77 99.55Z" fill="#2EB3E8"/>
<path fill-rule="evenodd" clip-rule="evenodd" d="M72.7301 92.6899C74.0001 92.6999 75.0201 93.7199 75.0101 94.9699L74.9301 105.52C74.9301 105.94 74.5801 106.27 74.1601 106.27L72.8401 106.26L74.8101 110.07C74.9801 110.4 74.8601 110.8 74.5401 111L74.4601 111.04C74.3501 111.09 74.2301 111.11 74.1201 111.11C73.8401 111.11 73.5701 110.96 73.4401 110.7L72.8901 109.64L63.1001 109.57L62.5401 110.62C62.4001 110.87 62.1301 111.02 61.8501 111.02C61.7301 111.02 61.6201 110.99 61.5101 110.94C61.1301 110.76 60.9801 110.32 61.1701 109.96L63.2001 106.18L61.8901 106.17C61.5001 106.17 61.1701 105.87 61.1301 105.5V105.41L61.2101 94.8599C61.2201 93.6099 62.2601 92.6099 63.5301 92.6199L72.7301 92.6899ZM71.1401 106.24L64.9201 106.2C64.9101 106.23 64.9001 106.26 64.8801 106.28L63.8901 108.13L72.1501 108.19L71.1801 106.33C71.1601 106.3 71.1501 106.27 71.1401 106.24ZM64.2301 101.67C63.3801 101.66 62.6901 102.33 62.6901 103.17C62.6901 104.01 63.3701 104.68 64.2101 104.69C65.0601 104.7 65.7501 104.03 65.7501 103.19C65.7501 102.35 65.0701 101.67 64.2301 101.67ZM71.9001 101.72C71.0501 101.71 70.3601 102.38 70.3601 103.22C70.3501 104.05 71.0401 104.73 71.8801 104.74C72.7301 104.75 73.4201 104.08 73.4201 103.24C73.4201 102.41 72.7401 101.73 71.9001 101.72ZM72.7201 94.1899L63.5201 94.1199C63.1001 94.1199 62.7501 94.4499 62.7501 94.8699L62.7201 99.3899C62.7201 99.8099 63.0601 100.15 63.4801 100.15L72.6801 100.22C73.1001 100.22 73.4501 99.8899 73.4501 99.4699L73.4801 94.9499C73.4801 94.5399 73.1401 94.1999 72.7201 94.1899Z" fill="#F96268"/>
<path fill-rule="evenodd" clip-rule="evenodd" d="M38.9895 91.17C39.1695 95.93 17.2194 102.03 15.5394 102.1C14.5994 102.14 13.5195 101.95 13.4895 101.05C13.4795 100.75 13.7994 100.3 14.3594 99.76L12.6995 96.96C12.4695 96.58 12.6195 96.08 13.0095 95.9L13.2695 95.78C13.7495 95.56 14.2895 95.57 14.7595 95.8L17.6395 97.24C18.7095 96.52 19.9294 95.77 21.2194 95.02L15.5795 91.53C15.1295 91.25 15.1094 90.59 15.5394 90.29L15.9794 89.98C16.7094 89.46 17.6194 89.28 18.4794 89.49L27.7294 91.64C30.5394 90.36 33.0895 89.46 34.6195 89.4C35.0295 89.38 35.4395 89.38 35.8295 89.39L33.1195 90.79L33.0895 91.76L37.2795 89.56C38.3095 89.78 38.9495 90.23 38.9895 91.17ZM28.1694 99.81L31.7395 103.7C31.9595 103.94 32.2995 104 32.5795 103.85L33.0295 103.61C33.8495 103.18 34.2994 102.25 34.1594 101.31L33.5895 97.54C33.5495 97.31 33.3194 97.17 33.1094 97.25L28.2995 99.22C28.0595 99.31 27.9894 99.62 28.1694 99.81Z" fill="#36BC99"/>
</svg>
