<svg width="154" height="155" viewBox="0 0 154 155" fill="none" xmlns="http://www.w3.org/2000/svg">
<path d="M47.4697 74.97V57.68C47.4697 41.31 60.7397 28.05 77.0997 28.05C93.4697 28.05 106.73 41.32 106.73 57.68V74.97H47.4697Z" fill="#D4CDCB"/>
<path d="M77.1096 28.05C76.2796 28.05 75.4596 28.11 74.6396 28.17C89.8496 29.43 101.8 42.15 101.8 57.68V74.97H106.74V57.68C106.74 41.32 93.4697 28.05 77.1096 28.05Z" fill="#B27946"/>
<path d="M67.2301 131.77H121.56L116.92 117.87C115.21 112.74 110.84 108.95 105.51 107.98L86.9801 104.61H67.2201L48.6901 107.98C43.3701 108.95 38.9901 112.74 37.2801 117.87L35.1201 127.7V131.77H67.2301Z" fill="#FED4EA"/>
<path d="M67.2295 97.2V104.61L77.1095 114.49L86.9895 104.61V97.2H67.2295Z" fill="#F9E0A6"/>
<path d="M96.8594 67.5699H99.3294C103.419 67.5699 106.739 70.8899 106.739 74.9799C106.739 79.07 103.419 82.3899 99.3294 82.3899H96.8594V67.5699Z" fill="#F9E0A6"/>
<path d="M57.3497 67.5699H54.8797C50.7897 67.5699 47.4697 70.8899 47.4697 74.9799C47.4697 79.07 50.7897 82.3899 54.8797 82.3899H57.3497V67.5699Z" fill="#F9E0A6"/>
<path d="M54.8799 65.1V79.92C54.8799 92.2 64.8299 102.15 77.1099 102.15C89.3899 102.15 99.3399 92.2 99.3399 79.92V65.1C91.4399 65.1 83.8499 61.96 78.2599 56.37L77.1099 55.22L75.9599 56.37C70.3699 61.96 62.7899 65.1 54.8799 65.1Z" fill="#F9E0A6"/>
<path d="M94.3899 79.91C94.3899 91.35 85.7399 100.76 74.6299 101.99C75.4399 102.08 76.2599 102.14 77.0999 102.14C89.3799 102.14 99.3299 92.19 99.3299 79.91V65.1C97.6599 65.1 96.0099 64.93 94.3899 64.66V79.91Z" fill="#EABD8C"/>
<path d="M111.68 3.35999H146.25C148.98 3.35999 151.19 5.56998 151.19 8.29998V28.06C151.19 30.79 148.98 33 146.25 33H138.84L119.08 45.35L121.2 33H111.68C108.95 33 106.74 30.79 106.74 28.06V8.29998C106.74 5.56998 108.95 3.35999 111.68 3.35999Z" fill="#ECECEC"/>
<path d="M110.86 131.77H121.56L116.92 117.87C115.21 112.74 110.84 108.95 105.51 107.98L86.9805 104.61L104.75 114.48C107.55 116.03 109.42 118.84 109.77 122.02L110.86 131.77Z" fill="#FFA3D4"/>
<path d="M57.3497 123.09L48.4897 131.1C46.5597 133.03 43.4297 133.03 41.5097 131.1L23.7997 113.39C21.8697 111.46 21.8697 108.33 23.7997 106.41L31.8097 98.3999L16.9897 83.58L7.70969 92.86C1.91969 98.65 1.91969 108.03 7.70969 113.81L41.0897 147.19C46.8797 152.98 56.2597 152.98 62.0397 147.19L72.1697 137.91L57.3497 123.09Z" fill="#BAEDFE"/>
<path d="M119.27 117.09C117.27 111.1 112.18 106.68 105.96 105.55L89.4599 102.55V101.27C92.3299 99.6 94.8299 97.37 96.8199 94.73H101.81C105.89 94.73 109.22 91.41 109.22 87.32V57.69C109.22 39.99 94.8199 25.59 77.1199 25.59C59.4199 25.59 45.0199 39.99 45.0199 57.69V74.98C45.0199 79.74 48.4099 83.72 52.8999 84.65C54.2899 91.75 58.7199 97.75 64.7799 101.27V102.55L48.2699 105.55C42.0599 106.68 36.9599 111.1 34.9599 117.09L33.9699 120.06L25.5599 111.65C24.5999 110.69 24.5999 109.12 25.5599 108.16L35.3099 98.41L16.9999 80.1L5.97992 91.12C2.71992 94.38 0.919922 98.73 0.919922 103.34C0.919922 107.96 2.71992 112.3 5.97992 115.56L39.3599 148.94C42.6199 152.2 46.9699 154.01 51.5799 154.01C56.1899 154.01 60.5399 152.21 63.7299 149.02L75.7599 138L72.0099 134.26H125L119.27 117.09ZM77.1099 111L69.6999 103.59V103.47C72.0399 104.21 74.5299 104.61 77.1099 104.61C79.6899 104.61 82.1799 104.21 84.5199 103.47V103.59L77.1099 111ZM101.8 89.79H99.7199C100.44 88.16 100.98 86.44 101.33 84.65C102.39 84.43 103.36 84.01 104.27 83.48V87.32C104.27 88.69 103.16 89.79 101.8 89.79ZM101.8 70.72C103.27 71.58 104.27 73.15 104.27 74.97C104.27 76.79 103.27 78.37 101.8 79.22V70.72ZM49.9399 74.97C49.9399 73.15 50.9399 71.57 52.4099 70.72V79.23C50.9399 78.37 49.9399 76.79 49.9399 74.97ZM52.4099 62.63V65.45C51.5299 65.68 50.7099 66.03 49.9399 66.47V57.69C49.9399 42.71 62.1299 30.53 77.0999 30.53C92.0699 30.53 104.26 42.72 104.26 57.69V66.47C103.49 66.02 102.67 65.67 101.79 65.45V62.63H99.3199C92.0199 62.63 85.1499 59.79 79.9899 54.62L77.0999 51.73L74.2099 54.62C69.0399 59.78 62.1799 62.63 54.8799 62.63H52.4099ZM57.3499 79.91V67.47C64.7699 66.91 71.6799 63.85 77.1099 58.69C82.5399 63.85 89.4499 66.91 96.8699 67.47V79.91C96.8699 83.51 95.8899 86.88 94.1999 89.79H77.1199V94.73H90.1399C86.6599 97.79 82.1099 99.67 77.1199 99.67C66.2099 99.67 57.3499 90.81 57.3499 79.91ZM28.3199 98.4L25.6399 101.08L14.3099 89.75L16.9899 87.07L28.3199 98.4ZM51.5699 149.06C48.2699 149.06 45.1699 147.77 42.8399 145.44L9.45992 112.07C7.12992 109.74 5.83992 106.64 5.83992 103.34C5.83992 100.04 7.11992 96.94 9.45992 94.61L10.8199 93.25L22.1499 104.58L22.0599 104.67C19.1699 107.56 19.1699 112.26 22.0599 115.15L39.7699 132.86C41.1699 134.26 43.0299 135.03 45.0099 135.03C46.9899 135.03 48.8499 134.26 50.1599 132.95L50.3499 132.78L61.7299 144.16L60.3099 145.46C57.9599 147.77 54.8599 149.06 51.5699 149.06ZM65.3599 140.81L54.0099 129.46L57.2699 126.51L68.5999 137.84L65.3599 140.81ZM67.0499 129.3L57.4299 119.68L46.7399 129.35C45.8099 130.29 44.1799 130.29 43.2499 129.35L37.8599 123.96L39.6299 118.65C41.0499 114.37 44.6999 111.21 49.1399 110.4L66.3999 107.26L77.1099 117.97L87.8199 107.26L105.08 110.4C109.52 111.21 113.16 114.37 114.59 118.65L118.14 129.3H67.0499Z" fill="#F23C8B"/>
<path d="M146.25 0.890015H111.68C107.6 0.890015 104.27 4.21001 104.27 8.30001V28.06C104.27 32.14 107.59 35.47 111.68 35.47H118.28L115.73 50.36L139.56 35.47H146.26C150.34 35.47 153.67 32.15 153.67 28.06V8.30001C153.66 4.21001 150.34 0.890015 146.25 0.890015ZM148.72 28.05C148.72 29.41 147.61 30.52 146.25 30.52H138.13L122.45 40.32L124.13 30.52H111.68C110.32 30.52 109.21 29.41 109.21 28.05V8.30001C109.21 6.94001 110.32 5.83002 111.68 5.83002H146.25C147.61 5.83002 148.72 6.94001 148.72 8.30001V28.05Z" fill="#F23C8B"/>
<path d="M143.78 10.77H114.15V15.71H143.78V10.77Z" fill="#F23C8B"/>
<path d="M133.91 20.65H114.15V25.59H133.91V20.65Z" fill="#F23C8B"/>
<path d="M143.79 20.65H138.85V25.59H143.79V20.65Z" fill="#F23C8B"/>
<path d="M24.0504 62.27L21.5104 58.03L14.8204 62.05C21.8204 33.57 47.4304 13.23 77.1104 13.23C83.6004 13.23 90.0004 14.19 96.1404 16.09L97.6004 11.37C90.9904 9.32003 84.1004 8.28003 77.1104 8.28003C44.8404 8.28003 17.0504 30.6 9.82039 61.73L5.14039 53.93L0.900391 56.47L9.58039 70.93L24.0504 62.27Z" fill="#F23C8B"/>
<path d="M129.32 61.36L133.56 63.9L137.88 56.7C140.15 63.36 141.32 70.32 141.32 77.45C141.32 92.14 136.23 106.49 127 117.88L130.84 120.99C140.79 108.73 146.26 93.27 146.26 77.45C146.26 69.9 145.04 62.52 142.67 55.46L149.93 59.81L152.47 55.57L138 46.89L129.32 61.36Z" fill="#F23C8B"/>
</svg>
