<svg width="196" height="168" viewBox="0 0 196 168" fill="none" xmlns="http://www.w3.org/2000/svg">
<path fill-rule="evenodd" clip-rule="evenodd" d="M177.482 25.541L175.102 24.241C174.882 24.241 174.882 24.021 174.672 23.811L173.372 21.431C172.942 20.781 172.072 20.781 171.852 21.431L170.552 23.811C170.552 24.031 170.332 24.031 170.122 24.241L167.742 25.541C167.092 25.971 167.092 26.841 167.742 27.061L170.122 28.361C170.342 28.361 170.342 28.581 170.552 28.791L171.852 31.171C172.282 31.821 173.152 31.821 173.372 31.171L174.672 28.791C174.672 28.571 174.892 28.571 175.102 28.361L177.482 27.061C178.122 26.631 178.122 25.761 177.482 25.541Z" fill="#FFC9DF"/>
<path fill-rule="evenodd" clip-rule="evenodd" d="M63.413 27.841L59.8429 25.891C59.5229 25.891 59.523 25.571 59.193 25.241L57.2429 21.661C56.5929 20.691 55.293 20.691 54.973 21.661L53.0229 25.241C53.0229 25.561 52.7029 25.561 52.3729 25.891L48.7929 27.841C47.8229 28.491 47.8229 29.791 48.7929 30.111L52.3729 32.061C52.6929 32.061 52.6929 32.391 53.0229 32.711L54.973 36.281C55.623 37.251 56.9229 37.251 57.2429 36.281L59.193 32.711C59.193 32.391 59.5229 32.391 59.8429 32.061L63.413 30.111C64.393 29.471 64.393 28.171 63.413 27.841Z" fill="#FFA0C7"/>
<path d="M33.1128 149.931L31.3228 148.961C31.1628 148.961 31.1628 148.801 31.0028 148.641L30.0328 146.851C29.7128 146.361 29.0628 146.361 28.8928 146.851L27.9228 148.641C27.9228 148.801 27.7628 148.801 27.6028 148.961L25.8128 149.931C25.3228 150.261 25.3228 150.901 25.8128 151.071L27.6028 152.041C27.7628 152.041 27.7628 152.201 27.9228 152.371L28.8928 154.161C29.2228 154.651 29.8628 154.651 30.0328 154.161L31.0028 152.371C31.0028 152.211 31.1628 152.211 31.3228 152.041L33.1128 151.071C33.5928 150.741 33.5928 150.091 33.1128 149.931Z" fill="#F23C8B"/>
<path fill-rule="evenodd" clip-rule="evenodd" d="M37.6323 21.371L35.8424 20.401C35.6824 20.401 35.6823 20.241 35.5223 20.081L34.5523 18.291C34.2323 17.801 33.5824 17.801 33.4124 18.291L32.4424 20.081C32.4424 20.241 32.2824 20.241 32.1224 20.401L30.3323 21.371C29.8423 21.701 29.8423 22.341 30.3323 22.511L32.1224 23.481C32.2824 23.481 32.2824 23.641 32.4424 23.801L33.4124 25.591C33.7424 26.081 34.3823 26.081 34.5523 25.591L35.5223 23.801C35.5223 23.641 35.6824 23.641 35.8424 23.481L37.6323 22.511C38.1223 22.191 38.1223 21.541 37.6323 21.371Z" fill="#FFA0C7"/>
<path d="M157.523 150.841C160.483 150.841 162.883 148.441 162.883 145.481C162.883 142.521 160.483 140.121 157.523 140.121C154.563 140.121 152.163 142.521 152.163 145.481C152.163 148.441 154.563 150.841 157.523 150.841Z" stroke="#FFA0C7" stroke-width="1.185"/>
<path d="M159.982 13.961C160.971 13.961 161.772 13.1596 161.772 12.171C161.772 11.1824 160.971 10.381 159.982 10.381C158.994 10.381 158.192 11.1824 158.192 12.171C158.192 13.1596 158.994 13.961 159.982 13.961Z" fill="#DEE1EF" stroke="#F23C8B" stroke-width="1.185"/>
<path d="M139.132 157.831C141.104 157.831 142.702 156.233 142.702 154.261C142.702 152.289 141.104 150.691 139.132 150.691C137.161 150.691 135.562 152.289 135.562 154.261C135.562 156.233 137.161 157.831 139.132 157.831Z" stroke="#FFA0C7" stroke-width="1.185"/>
<path fill-rule="evenodd" clip-rule="evenodd" d="M61.3262 157.531C57.4681 157.533 53.8344 155.475 51.8451 152.168L16.1033 92.6814C12.9648 87.4555 14.6577 80.6597 19.8836 77.5212L128.51 12.2492C130.235 11.2155 132.193 10.6738 134.189 10.6668C138.047 10.6645 141.681 12.7223 143.67 16.0294L179.412 75.5161C182.55 80.7421 180.848 87.5409 175.632 90.6763L67.0052 155.948C65.2928 156.988 63.3248 157.533 61.3262 157.531Z" fill="#FED4EA"/>
<path d="M134.199 12.6719C137.27 12.6731 140.268 14.2327 141.967 17.0665L177.709 76.5532C180.279 80.8387 178.899 86.3972 174.617 88.9768L65.9873 154.239C64.526 155.114 62.9163 155.532 61.3288 155.532C58.2582 155.531 55.2594 153.971 53.5606 151.138L17.8189 91.6509C15.2488 87.3653 16.6287 81.8069 20.9111 79.2273L129.538 13.9552C131.002 13.0904 132.612 12.6725 134.199 12.6719ZM134.195 8.6778C131.829 8.67882 129.516 9.32536 127.483 10.5432L18.8562 75.8153C15.8636 77.6078 13.7517 80.46 12.9164 83.8437C12.0716 87.2305 12.6016 90.7385 14.391 93.7215L50.1327 153.208C52.4748 157.116 56.7731 159.536 61.3269 159.539C63.6923 159.538 66.0058 158.891 68.0389 157.673L176.665 92.4014C179.658 90.6089 181.77 87.7566 182.605 84.3729C183.45 80.9861 182.92 77.4782 181.131 74.4951L145.389 15.0085C143.047 11.101 138.758 8.67766 134.195 8.6778Z" fill="#F23C8B"/>
<path d="M48.8342 149.34C44.0305 149.345 39.8132 146.267 38.3204 141.706L32.0721 122.475L34.1002 121.921C34.3125 121.863 34.5248 121.804 34.7341 121.736C41.9906 119.379 45.9777 111.554 43.6199 104.297C41.7596 98.5716 36.4729 94.7271 30.458 94.7257C29.0065 94.7242 27.569 94.96 26.1805 95.4111C25.9712 95.4791 25.762 95.5471 25.5684 95.631L23.6052 96.3846L16.8872 75.7086C15.9756 72.903 16.2102 69.9037 17.5521 67.2701C18.894 64.6366 21.173 62.6869 23.9786 61.7753L144.497 22.6166C145.609 22.2551 146.759 22.0709 147.916 22.0734C152.72 22.0687 156.937 25.1461 158.42 29.7112L165.077 50.1969L163.288 50.8728C156.368 53.4893 152.737 61.0514 155.024 68.0892C156.884 73.8146 162.171 77.659 168.185 77.6604C169.416 77.6603 170.644 77.4925 171.832 77.1695L173.677 76.6648L179.866 95.7145C181.748 101.506 178.564 107.756 172.772 109.638L52.2537 148.797C51.141 149.158 49.9885 149.333 48.8342 149.34Z" fill="white"/>
<path d="M147.914 24.072C151.73 24.0725 155.276 26.506 156.518 30.3293L162.584 48.9985C154.716 51.9652 150.498 60.6328 153.121 68.7073C155.297 75.4027 161.504 79.6526 168.183 79.6591C169.571 79.6601 170.964 79.4809 172.362 79.0899L177.961 96.3231C179.506 101.078 176.906 106.182 172.151 107.727L51.6326 146.885C50.7006 147.188 49.7603 147.336 48.8337 147.332C45.0167 147.332 41.4712 144.898 40.229 141.075L34.6296 123.842C34.8704 123.774 35.1113 123.706 35.3491 123.629C43.6708 120.925 48.2229 111.991 45.519 103.669C43.3435 96.974 37.1364 92.7241 30.4575 92.7177C28.8384 92.718 27.1857 92.9711 25.5594 93.4995C25.3216 93.5768 25.0774 93.6667 24.8523 93.7503L18.7863 75.0811C17.2412 70.3258 19.8414 65.2225 24.5967 63.6774L145.115 24.5188C146.044 24.2064 146.987 24.0681 147.914 24.072ZM147.915 20.0653C146.549 20.0676 145.188 20.2786 143.875 20.7051L23.3576 59.8637C16.51 62.0886 12.7571 69.4696 14.979 76.3077L21.045 94.9769L22.3428 98.9713L26.2659 97.4864C26.4435 97.4181 26.6148 97.3625 26.7955 97.3038C27.9843 96.9175 29.2223 96.715 30.4555 96.7244C35.5975 96.7255 40.1264 100.017 41.7147 104.906C43.7326 111.116 40.3234 117.807 34.113 119.825C33.9323 119.884 33.7516 119.942 33.5773 119.988L29.5306 121.093L30.8284 125.087L36.4278 142.32C38.18 147.713 43.1648 151.34 48.8413 151.336C50.2074 151.333 51.5688 151.122 52.8813 150.696L173.399 111.537C180.247 109.312 184 101.932 181.778 95.0934L176.178 77.8603L174.998 74.2272L171.319 75.2334C170.295 75.5134 169.247 75.6541 168.197 75.6588C163.055 75.6577 158.527 72.3661 156.938 67.4776C154.979 61.4479 158.083 54.9823 164.001 52.744L167.569 51.3955L166.388 47.7624L160.322 29.0932C158.567 23.6912 153.582 20.0641 147.915 20.0653Z" fill="#F23C8B"/>
<path d="M108.609 36.3499L111.949 46.3699L117.679 44.4599L114.339 34.4399C114.339 34.4399 108.609 36.3499 108.609 36.3499ZM113.869 52.0899L117.209 62.1099L122.929 60.1999L119.589 50.1799L113.869 52.0899ZM119.119 67.8299L122.459 77.8499L128.179 75.9399L124.839 65.9199L119.119 67.8299ZM124.379 83.5699L127.719 93.5899L133.439 91.6799L130.099 81.6599L124.379 83.5699ZM129.629 99.3099L132.969 109.33L138.689 107.42L135.349 97.3999L129.629 99.3099ZM134.889 115.05L136.269 119.2L141.989 117.29L140.609 113.14L134.889 115.05Z" fill="#F23C8B"/>
<path d="M98.2604 119.34C95.8904 119.34 93.6704 118.88 91.6804 117.98C89.7304 117.1 88.0104 115.88 86.5804 114.35C85.1504 112.82 84.0404 111.03 83.2904 109.01C82.6304 107.26 82.2604 105.38 82.1904 103.41L72.9604 116.04C71.5204 118.05 69.3304 119.18 66.8004 119.18C64.7804 119.18 62.9704 118.44 61.5804 117.04C60.1804 115.64 59.4404 113.84 59.4404 111.82C59.4404 110.1 59.9904 108.48 61.0304 107.13L71.0804 93.37C69.9404 93.61 68.7404 93.74 67.5104 93.74C65.1304 93.74 62.9204 93.28 60.9304 92.38C58.9804 91.5 57.2704 90.28 55.8404 88.75C54.4104 87.23 53.3004 85.43 52.5504 83.42C51.8104 81.45 51.4404 79.32 51.4404 77.08V76.94C51.4404 74.69 51.8304 72.54 52.6004 70.54C53.3704 68.53 54.4804 66.73 55.8904 65.2C57.3304 63.63 59.0704 62.39 61.0704 61.5C63.0804 60.61 65.3004 60.15 67.6604 60.15C70.0304 60.15 72.2504 60.61 74.2404 61.51C76.2004 62.39 77.9104 63.61 79.3404 65.14C80.7704 66.66 81.8804 68.46 82.6304 70.47C83.2904 72.22 83.6604 74.11 83.7304 76.07L92.9604 63.44C94.4004 61.43 96.6004 60.3 99.1204 60.3C101.14 60.3 102.94 61.04 104.34 62.44C105.74 63.84 106.48 65.65 106.48 67.66C106.48 69.38 105.93 71 104.89 72.35L94.8404 86.11C95.9804 85.87 97.1804 85.74 98.4104 85.74C100.78 85.74 103 86.2 104.99 87.1C106.95 87.99 108.66 89.21 110.09 90.73C111.52 92.25 112.63 94.05 113.38 96.06C114.12 98.03 114.49 100.16 114.49 102.4V102.54C114.49 104.79 114.1 106.94 113.33 108.94C112.55 110.96 111.45 112.76 110.04 114.29C108.6 115.86 106.86 117.1 104.86 117.99C102.85 118.89 100.63 119.34 98.2604 119.34ZM98.4604 104.83C98.8204 104.2 98.9904 103.51 98.9904 102.69V102.55C98.9904 101.68 98.8004 101 98.3904 100.4C98.3404 100.33 98.3104 100.29 98.2804 100.26C98.2804 100.26 98.2204 100.26 98.2004 100.26C97.8504 100.85 97.7004 101.54 97.7004 102.41V102.55C97.7004 103.42 97.8904 104.1 98.2904 104.7C98.3404 104.77 98.3704 104.81 98.4004 104.84C98.4004 104.83 98.4404 104.83 98.4604 104.83ZM67.7104 79.24C68.0704 78.61 68.2404 77.92 68.2404 77.1V76.96C68.2404 76.09 68.0504 75.41 67.6404 74.81C67.5904 74.74 67.5604 74.7 67.5304 74.67C67.5304 74.67 67.4704 74.67 67.4404 74.67C67.0904 75.26 66.9404 75.96 66.9404 76.82V76.96C66.9404 77.83 67.1304 78.51 67.5404 79.11C67.5804 79.18 67.6204 79.22 67.6504 79.25C67.6504 79.24 67.7004 79.24 67.7104 79.24Z" fill="#F23C8B"/>
<path d="M67.5204 89.75C65.7104 89.75 64.0604 89.42 62.5904 88.75C61.1104 88.08 59.8404 87.18 58.7704 86.03C57.7004 84.89 56.8804 83.55 56.3004 82.03C55.7304 80.51 55.4404 78.86 55.4404 77.1V76.96C55.4404 75.2 55.7404 73.54 56.3304 71.99C56.9304 70.44 57.7604 69.08 58.8304 67.91C59.9004 66.74 61.1904 65.83 62.6904 65.16C64.1904 64.49 65.8504 64.16 67.6604 64.16C69.4704 64.16 71.1204 64.49 72.5904 65.16C74.0704 65.83 75.3404 66.73 76.4204 67.88C77.4904 69.02 78.3104 70.36 78.8904 71.88C79.4604 73.41 79.7504 75.05 79.7504 76.81V76.95C79.7504 78.71 79.4504 80.37 78.8604 81.92C78.2604 83.47 77.4304 84.83 76.3604 86C75.2904 87.17 74.0004 88.09 72.5004 88.75C70.9904 89.41 69.3304 89.75 67.5204 89.75ZM67.6704 83.24C69.1904 83.24 70.3404 82.62 71.1004 81.38C71.8604 80.14 72.2404 78.71 72.2404 77.09V76.95C72.2404 75.28 71.8104 73.82 70.9504 72.55C70.0904 71.29 68.9504 70.66 67.5204 70.66C65.9904 70.66 64.8504 71.27 64.0904 72.48C63.3304 73.7 62.9504 75.14 62.9504 76.81V76.95C62.9504 78.62 63.3804 80.08 64.2404 81.35C65.0904 82.61 66.2404 83.24 67.6704 83.24ZM63.4504 111.84C63.4504 110.98 63.7104 110.22 64.2404 109.55L96.2004 65.8C96.9104 64.8 97.8904 64.3 99.1304 64.3C100.08 64.3 100.88 64.62 101.52 65.26C102.16 65.9 102.48 66.7 102.48 67.66C102.48 68.52 102.22 69.28 101.69 69.95L69.7304 113.7C69.0204 114.7 68.0404 115.2 66.8004 115.2C65.8504 115.2 65.0504 114.88 64.4004 114.24C63.7504 113.6 63.4504 112.79 63.4504 111.84ZM98.2604 115.34C96.4504 115.34 94.8004 115.01 93.3304 114.34C91.8504 113.67 90.5804 112.77 89.5004 111.62C88.4304 110.48 87.6104 109.14 87.0304 107.62C86.4604 106.1 86.1704 104.45 86.1704 102.69V102.55C86.1704 100.79 86.4704 99.13 87.0604 97.58C87.6604 96.03 88.4904 94.67 89.5604 93.5C90.6304 92.33 91.9204 91.42 93.4204 90.75C94.9204 90.08 96.5804 89.75 98.3904 89.75C100.2 89.75 101.85 90.08 103.32 90.75C104.8 91.42 106.07 92.32 107.15 93.47C108.22 94.61 109.04 95.95 109.62 97.47C110.19 99 110.48 100.64 110.48 102.4V102.54C110.48 104.3 110.18 105.96 109.59 107.51C108.99 109.06 108.16 110.42 107.09 111.59C106.02 112.76 104.73 113.68 103.23 114.34C101.73 115.01 100.07 115.34 98.2604 115.34ZM98.4104 108.83C99.9304 108.83 101.08 108.21 101.84 106.97C102.6 105.73 102.98 104.3 102.98 102.68V102.54C102.98 100.87 102.55 99.41 101.69 98.14C100.83 96.88 99.6904 96.25 98.2604 96.25C96.7304 96.25 95.5904 96.86 94.8304 98.07C94.0704 99.28 93.6904 100.73 93.6904 102.4V102.54C93.6904 104.21 94.1204 105.67 94.9804 106.94C95.8304 108.2 96.9804 108.83 98.4104 108.83Z" fill="#BAEDFE"/>
</svg>
